<?xml version="1.0" encoding="UTF-8"?>
<svg xmlns="http://www.w3.org/2000/svg" xmlns:xlink="http://www.w3.org/1999/xlink" xmlns:svgjs="http://svgjs.com/svgjs" version="1.1" x="0" y="0" viewBox="0 0 512 512" style="enable-background:new 0 0 512 512" xml:space="preserve" class=""><g><path xmlns="http://www.w3.org/2000/svg" d="m88 144h336a32 32 0 0 1 32 32v240a0 0 0 0 1 0 0h-400a0 0 0 0 1 0 0v-240a32 32 0 0 1 32-32z" fill="#e9eef2" data-original="#e9eef2" style="" class=""/><path xmlns="http://www.w3.org/2000/svg" d="m104 176h304a16 16 0 0 1 16 16v208a0 0 0 0 1 0 0h-336a0 0 0 0 1 0 0v-208a16 16 0 0 1 16-16z" fill="#00A0D2" data-original="#3397e8" style="" class=""/><path xmlns="http://www.w3.org/2000/svg" d="m24 400h464a0 0 0 0 1 0 0 64 64 0 0 1 -64 64h-336a64 64 0 0 1 -64-64 0 0 0 0 1 0 0z" fill="#dadcde" data-original="#dadcde" style="" class=""/><path xmlns="http://www.w3.org/2000/svg" d="m294.111 432h-76.222a16 16 0 0 1 -14.311-8.845l-11.578-23.155h128l-11.578 23.155a16 16 0 0 1 -14.311 8.845z" fill="#e9eef2" data-original="#e9eef2" style="" class=""/><path xmlns="http://www.w3.org/2000/svg" d="m136 48a16 16 0 0 0 -16 16v304h272v-304a16 16 0 0 0 -16-16z" fill="#e9eef2" data-original="#e9eef2" style="" class=""/><path xmlns="http://www.w3.org/2000/svg" d="m120 112h272v256h-272z" fill="#dadcde" data-original="#dadcde" style="" class=""/><circle xmlns="http://www.w3.org/2000/svg" cx="152" cy="80" fill="#eb423f" r="8" data-original="#eb423f" style="" class=""/><circle xmlns="http://www.w3.org/2000/svg" cx="184" cy="80" fill="#f7b030" r="8" data-original="#f7b030" style=""/><circle xmlns="http://www.w3.org/2000/svg" cx="216" cy="80" fill="#3dc285" r="8" data-original="#3dc285" style="" class=""/><g xmlns="http://www.w3.org/2000/svg" fill="#c3c6c7"><path d="m152 144h80v64h-80z" fill="#c3c6c7" data-original="#c3c6c7" style="" class=""/><path d="m312 152h-32a8 8 0 0 1 0-16h32a8 8 0 0 1 0 16z" fill="#c3c6c7" data-original="#c3c6c7" style="" class=""/><path d="m360 184h-96a8 8 0 0 1 0-16h96a8 8 0 0 1 0 16z" fill="#c3c6c7" data-original="#c3c6c7" style="" class=""/><path d="m200 248h-32a8 8 0 0 1 0-16h32a8 8 0 0 1 0 16z" fill="#c3c6c7" data-original="#c3c6c7" style="" class=""/><path d="m232 280h-80a8 8 0 0 1 0-16h80a8 8 0 0 1 0 16z" fill="#c3c6c7" data-original="#c3c6c7" style="" class=""/><path d="m232 312h-80a8 8 0 0 1 0-16h80a8 8 0 0 1 0 16z" fill="#c3c6c7" data-original="#c3c6c7" style="" class=""/><path d="m312 344h-160a8 8 0 0 1 0-16h160a8 8 0 0 1 0 16z" fill="#c3c6c7" data-original="#c3c6c7" style="" class=""/><path d="m360 152h-16a8 8 0 0 1 0-16h16a8 8 0 0 1 0 16z" fill="#c3c6c7" data-original="#c3c6c7" style="" class=""/></g><path xmlns="http://www.w3.org/2000/svg" d="m419 363a16.971 16.971 0 0 1 -24 0l-52-52 24-24 52 52a16.971 16.971 0 0 1 0 24z" fill="#2e6b31" data-original="#2e6b31" style="" class=""/><circle xmlns="http://www.w3.org/2000/svg" cx="312" cy="256" fill="#52c657" r="80" data-original="#ffd33a" style="" class=""/><circle xmlns="http://www.w3.org/2000/svg" cx="312" cy="256" fill="#e9eef2" r="48" data-original="#e9eef2" style="" class=""/></g></svg>